<?xml version="1.0" encoding="utf-8"?>
<!-- Generator: Adobe Illustrator 18.1.1, SVG Export Plug-In . SVG Version: 6.00 Build 0)  -->
<!DOCTYPE svg PUBLIC "-//W3C//DTD SVG 1.1//EN" "http://www.w3.org/Graphics/SVG/1.1/DTD/svg11.dtd">
<svg version="1.1" id="Layer_1" xmlns="http://www.w3.org/2000/svg" xmlns:xlink="http://www.w3.org/1999/xlink" x="0px" y="0px"
	 viewBox="0 0 734 290" enable-background="new 0 0 734 290" xml:space="preserve">
<g>
	<g>
		<path d="M489.4,96.7c0,13.7-2.1,25-6.2,33.8l-68.7,146.1c-2,4.1-5,7.4-9,9.8c-4,2.4-8.2,3.6-12.7,3.6c-4.5,0-8.8-1.2-12.7-3.6
			c-4-2.4-6.9-5.7-8.8-9.8l-68.9-146.1c-4.2-8.8-6.2-20.1-6.2-33.8c0-26.7,9.4-49.5,28.3-68.4C343.3,9.4,366.1,0,392.8,0
			c26.7,0,49.4,9.4,68.3,28.3C480,47.2,489.4,70,489.4,96.7z M430.4,134.3c10.4-10.4,15.6-22.9,15.6-37.6s-5.2-27.2-15.6-37.6
			c-10.4-10.4-22.9-15.6-37.6-15.6c-14.7,0-27.2,5.2-37.6,15.6c-10.4,10.4-15.6,22.9-15.6,37.6s5.2,27.2,15.6,37.6
			c10.4,10.4,22.9,15.6,37.6,15.6C407.4,149.8,420,144.6,430.4,134.3z"/>
	</g>
	<g>
		<path d="M0,131.2h14.5V48.7H0V25.1h60.6c10.2,0,16.5,0.4,23.8,2.7c13.6,4.7,22.7,16,22.7,31c0,11.3-5.3,22.1-15.4,27.8v0.4
			c15.4,4.7,20.7,17.4,20.7,29.8c0,19.6-13.6,32.5-28.8,36.3c-6.9,1.6-12.3,1.8-19.4,1.8H0V131.2z M62.9,75.3
			c8,0,11.4-5.6,11.4-12.5c0-4.5-1.8-9.4-6-11.3c-2.4-0.9-4.5-1.1-8-1.1H47v24.9H62.9z M65.7,129.4c2.4,0,4.4-0.4,6-1.1
			c5.1-2.2,7.8-8.2,7.8-14.2c0-7.6-4.4-13.4-13.6-13.4H47v28.7H65.7z"/>
		<path d="M121.7,131.2h14.1l6.9-82.6h-14.5V25.1h51L201,89.3c2.7,8,3.6,13.4,3.6,13.4h0.4c0,0,0.9-5.4,3.6-13.4l21.8-64.2h51v23.6
			h-14.5l6.9,82.6h14.1v23.6h-58.8v-23.6H242l-3.1-46.6c-0.4-5.4,0.7-14.5,0.7-14.5h-0.7c0,0-1.5,8.3-3.4,13.8l-17.1,47.4h-27.2
			l-17.1-47.4c-2-5.4-3.4-13.8-3.4-13.8H170c0,0,1.1,9.1,0.7,14.5l-3.1,46.6h12.9v23.6h-58.8V131.2z"/>
	</g>
	<g>
		<g>
			<path d="M497.6,130.7h14.5V48.1h-14.5V24.5h58.6c9.8,0,18.5,0.4,25.9,2.5c15.6,4.7,25.9,17.4,25.9,36.5c0,17.1-8.2,28.7-21,35.6
				v0.4c0,0,5.1,2.2,8,7.8l10,19.2c1.6,3.1,4.2,4.2,8.3,4.2h4.5v23.6h-21.4c-10.5,0-14.7-2.5-18.3-9.6l-15.8-30.3
				c-2.2-4.2-4.5-5.6-11.2-5.6h-6.5v22h13.6v23.6h-60.6V130.7z M559.3,83.3c10.2,0,16.5-5.1,16.5-16.9c0-6-1.5-11.6-7.1-14.3
				c-2.9-1.5-7.1-2.2-12.5-2.2h-11.6v33.4H559.3z"/>
			<path d="M631.9,130.7h14.5V48.1h-14.5V24.5h100v38.3h-27.2V49.9h-25.8v26.3h37.9v25.4h-37.9v27.2h27.9V116H734v38.3H631.9V130.7z
				"/>
		</g>
	</g>
	<g>
		<g>
			<path d="M522.7,170.4c6.4,0,19.7,2.4,19.7,10.5v5.6h-5v-4.2c0-5.2-9-7.2-14.4-7.2c-12.2,0-21.5,9.3-21.5,22.1
				c0,13.1,9.2,23.1,21.8,23.1c4.3,0,14.9-1.7,14.9-7.2v-4.1h5v5.6c0,7.7-12.8,10.4-20.1,10.4c-15.8,0-27.1-12.3-27.1-27.6
				C496,181.9,507.6,170.4,522.7,170.4z"/>
			<path d="M551.7,219.7h6.9v-44.1h-6.9v-4.4h19.1v4.4h-6.9v44.1h6.9v4.4h-19.1V219.7z"/>
			<path d="M589.9,219.7h6.9v-43.9H582v8.6h-4.7v-13.1h44.3v13.1h-4.8v-8.6H602v43.9h6.9v4.4h-19.1V219.7z"/>
			<path d="M638.6,219.7h6.9v-18.3L630,175.6h-5.2v-4.4h16.7v4.4h-5.9l11.4,19.2c0.5,0.9,1.1,2,1.1,2h0.1c0,0,0.5-1.1,1.1-2
				l11.5-19.2h-5.9v-4.4h16.6v4.4h-5.2l-15.5,25.8v18.3h6.9v4.4h-19.1V219.7z"/>
			<path d="M523.5,235.4c9.1,0,19.9,3.8,19.9,10.4v5.8h-5v-4c0-5-8.1-7.4-14.8-7.4c-13.4,0-22,9.5-22,22.5c0,13,8.8,22.7,21.9,22.7
				c5.3,0,16.1-1.7,16.1-7.7v-8.3h-11V265h16v13.8c0,8.2-13.2,11.2-21.2,11.2c-16.2,0-27.3-11.8-27.3-27.3S507,235.4,523.5,235.4z"
				/>
			<path d="M556.9,240.6H550v-4.4h19.1v4.4h-6.9v28.9c0,3.8,0.8,7.2,2.3,9.7c2.5,3.8,7,5.9,12.7,5.9c5.6,0,10.4-2.2,12.7-6.2
				c1.5-2.6,2.3-5.8,2.3-9.6v-28.8h-6.9v-4.4h19.1v4.4h-6.9v29c0,4.9-1.2,9.3-3.4,12.5c-3.5,5.1-9.6,7.9-16.9,7.9
				c-7.4,0-13.7-2.9-17-8c-2.3-3.3-3.2-7.4-3.2-12.4V240.6z"/>
			<path d="M610.9,284.7h6.9v-44.1h-6.9v-4.4H630v4.4h-6.9v44.1h6.9v4.4h-19.1V284.7z"/>
			<path d="M638.1,284.7h6.9v-44.1h-6.9v-4.4h22.3c4.5,0,7.7,0.3,11.3,1.4c10,3.2,16.3,12.3,16.3,25.1c0,13-6.5,21.9-17,25.1
				c-3.3,1.1-6.7,1.3-10.6,1.3h-22.3V284.7z M659.9,284.6c3.5,0,6.5-0.3,9.4-1.3c8-2.6,13.1-9.9,13.1-20.6c0-10.5-4.9-18-12.8-20.7
				c-3.1-1.1-6.1-1.2-9.8-1.2h-9.7v43.8H659.9z"/>
			<path d="M695.8,284.7h6.9v-44.1h-6.9v-4.4h37.3v11h-4.8v-6.5H708v19.5h20v4.5h-20v19.8h21.8v-6.8h4.7v11.3h-38.7V284.7z"/>
		</g>
	</g>
</g>
</svg>
