<svg xmlns="http://www.w3.org/2000/svg" version="1.1" x="0" y="0" viewBox="0 0 100 76" enable-background="new 0 0 100 76" xml:space="preserve"><path d="M0 62.2h96.6c0 3.8-1.3 7.1-4 9.8 -2.7 2.7-5.9 4.1-9.8 4.1h-69C10 76 6.7 74.6 4 71.9 1.3 69.3 0 66 0 62.2zM93.9 6.1c4 4 6.1 8.9 6.1 14.7s-2 10.6-6.1 14.7c-4 4-8.9 6.1-14.6 6.1h-3.4v1.7c0 3.3-1.2 6.1-3.6 8.5 -2.4 2.4-5.2 3.6-8.5 3.6H25.9c-3.3 0-6.1-1.2-8.5-3.6 -2.4-2.4-3.6-5.2-3.6-8.5V3.5c0-0.9 0.3-1.7 1-2.4 0.7-0.7 1.5-1 2.4-1h62.1C85 0 89.9 2 93.9 6.1zM86.6 28.1c2-2 3-4.5 3-7.3s-1-5.3-3-7.3c-2-2-4.5-3-7.3-3h-3.4v20.7h3.4C82.2 31.1 84.6 30.1 86.6 28.1z"/></svg>