<svg xmlns="http://www.w3.org/2000/svg" version="1.1" x="0" y="0" viewBox="0 0 80 100" enable-background="new 0 0 80 100" xml:space="preserve"><path d="M36.4 3.6v35.7c0 2.3-0.7 4.3-2 6.2 -1.3 1.9-3.1 3.2-5.3 3.9v43.5c0 1.9-0.7 3.6-2.2 5s-3.1 2.1-5.1 2.1h-7.3c-2 0-3.7-0.7-5.1-2.1s-2.2-3.1-2.2-5V49.4c-2.2-0.7-3.9-2-5.3-3.9 -1.3-1.9-2-3.9-2-6.2V3.6c0-1 0.4-1.8 1.1-2.5S2.7 0 3.6 0s1.8 0.4 2.6 1.1c0.7 0.7 1.1 1.5 1.1 2.5v23.2c0 1 0.4 1.8 1.1 2.5 0.7 0.7 1.6 1.1 2.6 1.1 1 0 1.8-0.4 2.6-1.1 0.7-0.7 1.1-1.5 1.1-2.5V3.6c0-1 0.4-1.8 1.1-2.5C16.3 0.4 17.2 0 18.2 0s1.8 0.4 2.6 1.1c0.7 0.7 1.1 1.5 1.1 2.5v23.2c0 1 0.4 1.8 1.1 2.5 0.7 0.7 1.6 1.1 2.6 1.1s1.8-0.4 2.6-1.1c0.7-0.7 1.1-1.5 1.1-2.5V3.6c0-1 0.4-1.8 1.1-2.5C30.9 0.4 31.7 0 32.7 0c1 0 1.8 0.4 2.6 1.1C36 1.8 36.4 2.6 36.4 3.6zM80 3.6v89.3c0 1.9-0.7 3.6-2.2 5 -1.4 1.4-3.1 2.1-5.1 2.1h-7.3c-2 0-3.7-0.7-5.1-2.1 -1.4-1.4-2.2-3.1-2.2-5V64.3H45.5c-0.5 0-0.9-0.2-1.3-0.5 -0.4-0.4-0.5-0.8-0.5-1.3V17.9c0-4.9 1.8-9.1 5.3-12.6C52.5 1.7 56.8 0 61.8 0h14.5c1 0 1.8 0.4 2.6 1.1C79.6 1.8 80 2.6 80 3.6z"/></svg>