<svg xmlns="http://www.w3.org/2000/svg" version="1.1" x="0" y="0" viewBox="0 0 100 88" enable-background="new 0 0 100 88" xml:space="preserve"><path d="M86.7 13.5c3.7 0 6.8 1.3 9.4 4 2.6 2.6 3.9 5.8 3.9 9.6v47.4c0 3.7-1.3 6.9-3.9 9.6 -2.6 2.6-5.7 4-9.4 4H13.3c-3.7 0-6.8-1.3-9.4-4C1.3 81.4 0 78.2 0 74.5V27.1c0-3.7 1.3-6.9 3.9-9.6 2.6-2.6 5.7-4 9.4-4H25l2.7-7.2c0.7-1.7 1.9-3.2 3.6-4.5C33 0.6 34.8 0 36.7 0h26.7c1.8 0 3.6 0.6 5.4 1.9 1.8 1.2 3 2.7 3.6 4.5l2.7 7.2H86.7zM33.5 67.5c4.6 4.6 10.1 7 16.5 7 6.4 0 11.9-2.3 16.5-7 4.6-4.6 6.9-10.2 6.9-16.7 0-6.5-2.3-12.1-6.9-16.7 -4.6-4.6-10.1-7-16.5-7 -6.4 0-11.9 2.3-16.5 7s-6.8 10.2-6.8 16.7C26.7 57.3 29 62.9 33.5 67.5zM39.4 40c2.9-3 6.5-4.5 10.6-4.5S57.7 37 60.6 40c2.9 3 4.4 6.6 4.4 10.8s-1.5 7.8-4.4 10.8c-2.9 3-6.5 4.5-10.6 4.5s-7.7-1.5-10.6-4.5c-2.9-3-4.4-6.6-4.4-10.8S36.5 43 39.4 40z"/></svg>